<svg id="Zahn3" xmlns="http://www.w3.org/2000/svg" viewBox="0 0 536 96"><defs><style>.cls-1,.cls-3,.cls-5,.cls-8{fill:none;}.cls-1,.cls-2,.cls-3,.cls-4,.cls-5,.cls-8{stroke:#007482;stroke-linecap:round;}.cls-1,.cls-2,.cls-3,.cls-4{stroke-width:0.7px;}.cls-1,.cls-2,.cls-3,.cls-4,.cls-5,.cls-6{fill-rule:evenodd;}.cls-2,.cls-4{fill:#fff;}.cls-3,.cls-4{stroke-linejoin:round;}.cls-5,.cls-8{stroke-width:0.5px;}.cls-6{fill:#007482;}.cls-7{fill:#1d1d1b;}.cls-8{stroke-miterlimit:10;}</style></defs><title>Zeichenfläche 1</title><path class="cls-1" d="M447.5,44.25l-4.74-.12c-16.46.38-17.6-.07-33.61,3.29s-18.88,16.56-33.92,21-64.15,4.1-64.15,4.1H120.39"/><path class="cls-1" d="M531.89,71.22c-8.38-.61-15.95-1.51-20.46-2.83-11.23-3.29-15.68-11.47-23.86-16.81,0,0-2.24-1.41-2.93-1.77"/><path class="cls-2" d="M451.13,13.47c5.12-6.25,9.81,0,13.93.93,5.53,1.19,9.69-3.4,13.94-.15,5.84,4.47.15,15.9-.38,20.64-.41,3.64.36,10.83.47,15.62"/><path class="cls-1" d="M480,48.22a9.67,9.67,0,0,0-1-2.53"/><path class="cls-3" d="M466.38,52.44c6.62,2.56,14,1.69,17.37-.94,0-5.75-3.12-11.12-5.14-13.83"/><path class="cls-4" d="M449.94,39.93c2.12,6.63,5.13,9.51,9.29,13,4.34.73,10-1.49,15.12-2.38,1.12.94,4.17.18,5.53-.32a2.79,2.79,0,0,0,.09-2s-.61-1.13-3.06-1.2a9.12,9.12,0,0,0-3.46.93s-9.18-.58-13.39,1c-2.47-4.16-3-4.83-6.24-9.58"/><path class="cls-1" d="M479.29,54.2c.42,3.35,2.76,14.37-1.29,14.8-4.75.5-8.14-12.46-14.21-13-3.56-.32-9.61,17.12-14.54,13-3-2.5.5-17.5-.75-23-1.73-7.61-8.23-24.48-4-30.5,2.58-3.68,6.87-1.69,8-1.23,3.42,1.41,6.71,5.64,13.3,4.32"/><path class="cls-2" d="M408.86,6.1a7.76,7.76,0,0,1,6.33-2.47c5.43.4,5.84,3.48,9.9,4.21,7.22,1.28,15-3.3,18.26,3.8,1.88,4-.1,13-1,16.2a83.08,83.08,0,0,1-3.85,10.78c-2.14,5.32-3.79,9.41-4.22,14-.46,4.82,3,19.89-2.54,19.89-6,0-11.87-20.69-17.35-15.54-1.73,1.63-9,14.26-13.81,13.12-5.24-1.23,1.54-15.93,1.57-24,1.7-5.88-5.68-31.22-1.57-37.19,3-4.29,7-3.46,9.56-2.24s9.67,7.14,15.77,5.12"/><path class="cls-1" d="M403.35,47.38c8.77,1.93,17.75,1.44,21.74-.13C429.3,44,432.89,40.8,436,35.57"/><path class="cls-5" d="M471.34,17.75c5.82-1,6.21,1.79,6.08,4"/><path class="cls-5" d="M433.68,11.8c5,.63,4.59,4.3,4.6,6.9"/><path class="cls-1" d="M423.51,25.35c0,1.17.61,2.12,1.35,2.12s1.35-.95,1.35-2.12-.61-2.13-1.35-2.13S423.51,24.17,423.51,25.35Z"/><path class="cls-1" d="M412.81,24.08c0,1.18.6,2.13,1.35,2.13s1.34-.95,1.34-2.13S414.9,22,414.16,22,412.81,22.91,412.81,24.08Z"/><path class="cls-1" d="M467.84,37.89a4.64,4.64,0,0,1-2.29,1.38,9,9,0,0,1-4.8-.27"/><path class="cls-5" d="M467.56,36.28a1.9,1.9,0,0,1,2,1.52"/><path class="cls-1" d="M413.39,32.88c.3,1.66,3.67,2.44,4.85,2.61a8.19,8.19,0,0,0,2.2,0"/><path class="cls-3" d="M430.55,35.2a54.2,54.2,0,0,0-7.19,8.62,53.63,53.63,0,0,0-6.55.31"/><path class="cls-2" d="M400.87,43.19s-.5-1.44-.17-2,.48-1,1.49-1a3.21,3.21,0,0,1,2.26,1,7,7,0,0,1,1,1.88"/><path class="cls-4" d="M401.85,37c-.41,2.42-1.49,4.44-2,6.15a58.94,58.94,0,0,1,9.81-.18s2.55-1.16,7.1,1.15c-2.94-.39-13.21,5.35-20.89,2.13-.08-7.77,3-14.82,4.62-18.2Z"/><path class="cls-6" d="M413,25a1.16,1.16,0,1,0,1.15-1.34A1.26,1.26,0,0,0,413,25Z"/><path class="cls-6" d="M423.67,25.91a1.23,1.23,0,1,0,1.23-1.34A1.28,1.28,0,0,0,423.67,25.91Z"/><path d="M4.56,27H6.77l9.11,32.69H16L25.25,27h2.69l9.41,32.69h.1l9-32.69h2.31l-10,35H36.23L26.62,28.83h-.1L17.06,62h-2.4Z"/><path d="M67,57h-.1a7.71,7.71,0,0,1-1.27,2.14,9.36,9.36,0,0,1-2,1.79,10.06,10.06,0,0,1-2.72,1.22,11.67,11.67,0,0,1-3.33.44,9.85,9.85,0,0,1-6.23-1.74,6.42,6.42,0,0,1-2.2-5.37,6.62,6.62,0,0,1,.88-3.6,6.7,6.7,0,0,1,2.23-2.2,9.65,9.65,0,0,1,3-1.16c1.09-.22,2.15-.39,3.16-.49l2.89-.24a16.68,16.68,0,0,0,3.17-.47,4.06,4.06,0,0,0,1.74-.88A2.52,2.52,0,0,0,66.91,45a13.59,13.59,0,0,0,.15-2.21,4.66,4.66,0,0,0-.39-1.91,4.35,4.35,0,0,0-1.23-1.57,6,6,0,0,0-2.16-1.08,11.55,11.55,0,0,0-3.23-.39,8.5,8.5,0,0,0-5.47,1.67,6.58,6.58,0,0,0-2.28,5H50.44a8.26,8.26,0,0,1,2.67-6.25c1.65-1.38,4-2.08,7-2.08s5.25.6,6.64,1.79a5.86,5.86,0,0,1,2.08,4.68V57.31q0,.54,0,1.08a3.35,3.35,0,0,0,.17,1,1.5,1.5,0,0,0,.49.71,1.55,1.55,0,0,0,1,.27,8.85,8.85,0,0,0,1.37-.15v1.57a5.92,5.92,0,0,1-1.52.19,4.43,4.43,0,0,1-1.79-.29,2.43,2.43,0,0,1-1-.78,2.87,2.87,0,0,1-.47-1.16A8.06,8.06,0,0,1,67,58.29Zm0-9.31a3.54,3.54,0,0,1-2.08,1.13,25.75,25.75,0,0,1-3.12.44l-3.13.29c-.92.1-1.83.24-2.75.42a7.83,7.83,0,0,0-2.47.91,4.89,4.89,0,0,0-1.79,1.74A5.31,5.31,0,0,0,51,55.44a4.9,4.9,0,0,0,1.76,4.15,7.84,7.84,0,0,0,4.86,1.35,9.56,9.56,0,0,0,5-1.16,8.87,8.87,0,0,0,2.84-2.64,8.2,8.2,0,0,0,1.25-2.9A12.36,12.36,0,0,0,67,52.36Z"/><path d="M77.11,27V62H75.24V27Z"/><path d="M85.34,27V62H83.48V27Z"/><path d="M93.53,42.55h.14a9.71,9.71,0,0,1,1-2,8.4,8.4,0,0,1,1.81-2.09,9.7,9.7,0,0,1,6.37-2.23,11,11,0,0,1,5,1.08,10.15,10.15,0,0,1,3.52,2.89,12.36,12.36,0,0,1,2.09,4.22,18.17,18.17,0,0,1,.68,5.05,19.53,19.53,0,0,1-.68,5.29,11.71,11.71,0,0,1-2.09,4.14,9.66,9.66,0,0,1-3.54,2.72,11.87,11.87,0,0,1-5,1,11.36,11.36,0,0,1-5.6-1.37,8,8,0,0,1-3.58-4.46h-.1V71H91.71V36.77h1.82Zm9.29,18.39a9.15,9.15,0,0,0,4.25-.94,8.42,8.42,0,0,0,3-2.5,10.9,10.9,0,0,0,1.72-3.65,17.18,17.18,0,0,0,.56-4.43,16.82,16.82,0,0,0-.54-4.24,11.82,11.82,0,0,0-1.67-3.73,8.6,8.6,0,0,0-2.93-2.65,9.88,9.88,0,0,0-8.62,0,8.17,8.17,0,0,0-2.87,2.6,10.94,10.94,0,0,0-1.6,3.7,18.69,18.69,0,0,0-.49,4.34A20.38,20.38,0,0,0,94,53.75a10.34,10.34,0,0,0,1.5,3.68A7.66,7.66,0,0,0,98.37,60,9.33,9.33,0,0,0,102.82,60.94Z"/><path d="M120.39,42.36h.15a6,6,0,0,1,1.25-2.31,8.9,8.9,0,0,1,2.2-1.86,11.13,11.13,0,0,1,2.89-1.2,11.77,11.77,0,0,1,3.31-.37v1.87a8.71,8.71,0,0,0-3.35.29,8.24,8.24,0,0,0-3.61,2.16,15.92,15.92,0,0,0-1.2,1.42,7,7,0,0,0-.86,1.52,9.27,9.27,0,0,0-.54,1.86,16.11,16.11,0,0,0-.24,2.45V62h-1.86V36.77h1.86Z"/><path d="M147.89,57h-.1a7.71,7.71,0,0,1-1.27,2.14,9.36,9.36,0,0,1-2,1.79,10.06,10.06,0,0,1-2.72,1.22,11.67,11.67,0,0,1-3.33.44,9.85,9.85,0,0,1-6.23-1.74,6.42,6.42,0,0,1-2.2-5.37,6.62,6.62,0,0,1,.88-3.6,6.7,6.7,0,0,1,2.23-2.2,9.55,9.55,0,0,1,3-1.16c1.09-.22,2.15-.39,3.16-.49l2.89-.24a16.43,16.43,0,0,0,3.16-.47,4,4,0,0,0,1.75-.88,2.52,2.52,0,0,0,.73-1.44,13.59,13.59,0,0,0,.15-2.21,4.66,4.66,0,0,0-.39-1.91,4.35,4.35,0,0,0-1.23-1.57,6,6,0,0,0-2.16-1.08,11.55,11.55,0,0,0-3.23-.39,8.5,8.5,0,0,0-5.47,1.67,6.58,6.58,0,0,0-2.28,5h-1.86A8.26,8.26,0,0,1,134,38.26c1.65-1.38,4-2.08,7-2.08s5.25.6,6.64,1.79a5.86,5.86,0,0,1,2.08,4.68V57.31q0,.54,0,1.08a3.35,3.35,0,0,0,.17,1,1.43,1.43,0,0,0,.49.71,1.55,1.55,0,0,0,1,.27,8.85,8.85,0,0,0,1.37-.15v1.57a5.92,5.92,0,0,1-1.52.19,4.43,4.43,0,0,1-1.79-.29,2.37,2.37,0,0,1-1-.78,2.87,2.87,0,0,1-.47-1.16,8.06,8.06,0,0,1-.12-1.44Zm0-9.31a3.54,3.54,0,0,1-2.08,1.13,25.75,25.75,0,0,1-3.12.44l-3.13.29c-.92.1-1.84.24-2.75.42a7.83,7.83,0,0,0-2.47.91,4.89,4.89,0,0,0-1.79,1.74,5.31,5.31,0,0,0-.69,2.86,4.9,4.9,0,0,0,1.76,4.15,7.84,7.84,0,0,0,4.86,1.35,9.56,9.56,0,0,0,5.05-1.16,9,9,0,0,0,2.84-2.64,8.2,8.2,0,0,0,1.25-2.9,12.36,12.36,0,0,0,.27-1.88Z"/><path d="M162.54,48.73l-9.21-12h2.6l7.89,10.54,7.94-10.54h2.4l-9.12,12L175,62h-2.54l-8.63-11.81L155,62h-2.36Z"/><path d="M177.89,32V27h1.86V32Zm0,29.94V36.77h1.86V62Z"/><path d="M186.56,53.58a7.8,7.8,0,0,0,.79,3.12,7.46,7.46,0,0,0,4.36,3.75,10.21,10.21,0,0,0,3.19.49,16.6,16.6,0,0,0,2.62-.23,9,9,0,0,0,2.6-.8,5.38,5.38,0,0,0,2-1.65,4.36,4.36,0,0,0,.79-2.67,3.94,3.94,0,0,0-1.28-3.18,8.87,8.87,0,0,0-3.21-1.67,33.67,33.67,0,0,0-4.17-1,21.31,21.31,0,0,1-4.16-1.1,8.46,8.46,0,0,1-3.21-2.08,5.55,5.55,0,0,1-1.28-4,5.52,5.52,0,0,1,.83-3.11,6.27,6.27,0,0,1,2.14-2,9.59,9.59,0,0,1,2.91-1,17,17,0,0,1,3.24-.32,15,15,0,0,1,3.68.44,8.07,8.07,0,0,1,3,1.42,6.83,6.83,0,0,1,2,2.5,8.72,8.72,0,0,1,.71,3.68h-1.86a7.11,7.11,0,0,0-.56-2.94,5.18,5.18,0,0,0-1.57-2,6.89,6.89,0,0,0-2.38-1.12,11.17,11.17,0,0,0-2.94-.37,14.05,14.05,0,0,0-2.57.24,7.58,7.58,0,0,0-2.33.84,5.16,5.16,0,0,0-1.69,1.52,3.72,3.72,0,0,0-.67,2.25,3.85,3.85,0,0,0,.74,2.45,5.27,5.27,0,0,0,1.94,1.5,13.06,13.06,0,0,0,2.69.9l3,.69c1.24.23,2.41.5,3.5.81a9.75,9.75,0,0,1,2.84,1.27,5.84,5.84,0,0,1,1.89,2.09,6.75,6.75,0,0,1,.69,3.23,5.74,5.74,0,0,1-.93,3.38,7.12,7.12,0,0,1-2.36,2.14,9.81,9.81,0,0,1-3.16,1.12,18.17,18.17,0,0,1-3.4.32,13.81,13.81,0,0,1-4-.56,9,9,0,0,1-3.21-1.72,8.11,8.11,0,0,1-2.16-2.81,9.58,9.58,0,0,1-.83-3.88Z"/><path d="M219.84,27h2.21l9.12,32.69h.1L240.53,27h2.7l9.41,32.69h.1l9-32.69H264L254,62h-2.45L241.9,28.83h-.1L232.34,62h-2.4Z"/><path d="M268.08,32V27h1.86V32Zm0,29.94V36.77h1.86V62Z"/><path d="M275.87,36.77h1.86v5.39h.1a7.94,7.94,0,0,1,1.4-2.52,8.86,8.86,0,0,1,2.11-1.89A9.56,9.56,0,0,1,284,36.57a10.88,10.88,0,0,1,2.89-.39,11.43,11.43,0,0,1,3.75.54,7.4,7.4,0,0,1,2.53,1.42,7,7,0,0,1,1.54,2,9.67,9.67,0,0,1,.81,2.23,13.2,13.2,0,0,1,.29,2.18c0,.7.05,1.31.05,1.84V62H294V46a23.21,23.21,0,0,0-.15-2.35A7.09,7.09,0,0,0,293,41a6.25,6.25,0,0,0-2.15-2.23,7.38,7.38,0,0,0-4-.93,8.9,8.9,0,0,0-3.82.78,8.48,8.48,0,0,0-2.85,2.18,9.64,9.64,0,0,0-1.78,3.34,13.92,13.92,0,0,0-.62,4.24V62h-1.86Z"/><path d="M302.19,53.58A7.8,7.8,0,0,0,303,56.7a7.38,7.38,0,0,0,4.36,3.75,10.21,10.21,0,0,0,3.19.49,16.6,16.6,0,0,0,2.62-.23,9,9,0,0,0,2.6-.8,5.46,5.46,0,0,0,2-1.65,4.36,4.36,0,0,0,.79-2.67,3.94,3.94,0,0,0-1.28-3.18A8.87,8.87,0,0,0,314,50.74a33.67,33.67,0,0,0-4.17-1,21.31,21.31,0,0,1-4.16-1.1,8.39,8.39,0,0,1-3.21-2.08,5.55,5.55,0,0,1-1.28-4,5.45,5.45,0,0,1,.84-3.11,6.15,6.15,0,0,1,2.13-2,9.59,9.59,0,0,1,2.91-1,17,17,0,0,1,3.24-.32,14.82,14.82,0,0,1,3.67.44A8,8,0,0,1,317,38a6.83,6.83,0,0,1,2,2.5,8.72,8.72,0,0,1,.71,3.68h-1.86a7,7,0,0,0-.57-2.94,5.07,5.07,0,0,0-1.56-2,6.89,6.89,0,0,0-2.38-1.12,11.12,11.12,0,0,0-2.94-.37,14.05,14.05,0,0,0-2.57.24,7.58,7.58,0,0,0-2.33.84,5.16,5.16,0,0,0-1.69,1.52,3.79,3.79,0,0,0-.67,2.25,3.85,3.85,0,0,0,.74,2.45,5.27,5.27,0,0,0,1.94,1.5,13.26,13.26,0,0,0,2.69.9l3,.69c1.24.23,2.41.5,3.5.81a9.75,9.75,0,0,1,2.84,1.27,5.75,5.75,0,0,1,1.89,2.09,6.75,6.75,0,0,1,.69,3.23,5.74,5.74,0,0,1-.93,3.38,7.12,7.12,0,0,1-2.36,2.14,9.9,9.9,0,0,1-3.16,1.12,18.17,18.17,0,0,1-3.4.32,13.81,13.81,0,0,1-4-.56,9.11,9.11,0,0,1-3.21-1.72,8,8,0,0,1-2.16-2.81,9.58,9.58,0,0,1-.83-3.88Z"/><path d="M325.57,49.61v.3a15,15,0,0,0,.59,4.21,10.91,10.91,0,0,0,1.75,3.53,8.27,8.27,0,0,0,2.9,2.4,8.82,8.82,0,0,0,4.05.89,8.67,8.67,0,0,0,6-2,10.42,10.42,0,0,0,3.05-5.51h1.86a11.32,11.32,0,0,1-3.6,6.76,10.94,10.94,0,0,1-7.33,2.35,11.1,11.1,0,0,1-4.88-1,9.92,9.92,0,0,1-3.48-2.75,11.55,11.55,0,0,1-2.08-4.11,18.39,18.39,0,0,1-.69-5.13,18.11,18.11,0,0,1,.71-5.07,12.72,12.72,0,0,1,2.13-4.26,10.65,10.65,0,0,1,3.56-2.95,10.83,10.83,0,0,1,5-1.1,10.67,10.67,0,0,1,4.68,1,10,10,0,0,1,3.41,2.67,12,12,0,0,1,2.08,3.92,15.53,15.53,0,0,1,.71,4.78c0,.17,0,.35,0,.57s0,.38,0,.51ZM344.1,48a14.48,14.48,0,0,0-.69-3.89,9.54,9.54,0,0,0-1.74-3.24,8.72,8.72,0,0,0-2.8-2.23,8.29,8.29,0,0,0-3.76-.83,8.73,8.73,0,0,0-6.88,3.11,9.89,9.89,0,0,0-1.82,3.26,15.19,15.19,0,0,0-.79,3.82Z"/><path d="M350.33,36.77h1.86v5.39h.1a7.92,7.92,0,0,1,1.39-2.52,9.26,9.26,0,0,1,2.11-1.89,9.62,9.62,0,0,1,2.63-1.18,10.83,10.83,0,0,1,2.89-.39,11.43,11.43,0,0,1,3.75.54,7.26,7.26,0,0,1,2.52,1.42,7,7,0,0,1,1.55,2,9.19,9.19,0,0,1,.8,2.23,12.26,12.26,0,0,1,.3,2.18c0,.7,0,1.31,0,1.84V62h-1.87V46a22.79,22.79,0,0,0-.14-2.35,7.27,7.27,0,0,0-.86-2.72,6.19,6.19,0,0,0-2.16-2.23,7.32,7.32,0,0,0-4-.93,8.94,8.94,0,0,0-3.83.78,8.44,8.44,0,0,0-2.84,2.18,9.83,9.83,0,0,0-1.79,3.34,13.92,13.92,0,0,0-.61,4.24V62h-1.86Z"/><path class="cls-7" d="M121.37,81h6.74v.51l-6.51,8.58h6.63v.51H121v-.51l6.48-8.58h-6.09Z"/><path class="cls-7" d="M133.55,89.25h0a1.84,1.84,0,0,1-.35.58,2.17,2.17,0,0,1-.55.49,2.57,2.57,0,0,1-.75.34,3.28,3.28,0,0,1-.91.12,2.68,2.68,0,0,1-1.71-.48,1.74,1.74,0,0,1-.6-1.47,1.86,1.86,0,0,1,.24-1,1.84,1.84,0,0,1,.61-.6,2.7,2.7,0,0,1,.82-.32c.3-.06.59-.1.87-.13l.79-.07a4.13,4.13,0,0,0,.87-.13,1,1,0,0,0,.47-.24.62.62,0,0,0,.2-.39,3.59,3.59,0,0,0,0-.61,1.14,1.14,0,0,0-.44-.95,1.56,1.56,0,0,0-.59-.3,3.22,3.22,0,0,0-.89-.11,2.35,2.35,0,0,0-1.5.46,1.81,1.81,0,0,0-.62,1.39H129a2.25,2.25,0,0,1,.73-1.72,2.92,2.92,0,0,1,1.93-.57,2.75,2.75,0,0,1,1.82.49,1.62,1.62,0,0,1,.57,1.28v4c0,.1,0,.2,0,.3a.76.76,0,0,0,.05.27.36.36,0,0,0,.13.19.41.41,0,0,0,.27.08l.37,0v.43a1.84,1.84,0,0,1-.41.05,1.28,1.28,0,0,1-.49-.08.63.63,0,0,1-.28-.22,1,1,0,0,1-.13-.31,2.5,2.5,0,0,1,0-.4Zm0-2.55a.92.92,0,0,1-.57.3,6.62,6.62,0,0,1-.85.13l-.86.08a6.32,6.32,0,0,0-.76.11,2.22,2.22,0,0,0-.68.25,1.41,1.41,0,0,0-.49.48,1.5,1.5,0,0,0-.18.78,1.36,1.36,0,0,0,.48,1.14,2.19,2.19,0,0,0,1.33.37,2.61,2.61,0,0,0,1.38-.32,2.38,2.38,0,0,0,.78-.72,2.3,2.3,0,0,0,.35-.8,3.13,3.13,0,0,0,.07-.51Z"/><path class="cls-7" d="M136.2,81v4.17h0a2.11,2.11,0,0,1,.38-.69,2.4,2.4,0,0,1,.58-.52,2.59,2.59,0,0,1,.72-.32,3,3,0,0,1,.79-.11,3.15,3.15,0,0,1,1,.15,2.08,2.08,0,0,1,.69.39,1.79,1.79,0,0,1,.42.54,2.14,2.14,0,0,1,.22.61,3.36,3.36,0,0,1,.09.6c0,.19,0,.36,0,.51v4.27h-.51V86.25c0-.17,0-.38,0-.64a2.06,2.06,0,0,0-.24-.75,1.71,1.71,0,0,0-.59-.61,2,2,0,0,0-1.09-.26,2.46,2.46,0,0,0-1.05.22,2.1,2.1,0,0,0-.78.6,2.49,2.49,0,0,0-.49.91,3.62,3.62,0,0,0-.17,1.16v3.74h-.51V81Z"/><path class="cls-7" d="M142.66,83.71h.51v1.48h0a2.31,2.31,0,0,1,.38-.69,2.52,2.52,0,0,1,1.3-.84,3.26,3.26,0,0,1,1.82,0,2.08,2.08,0,0,1,.69.39,2,2,0,0,1,.43.54,3,3,0,0,1,.22.61,4.51,4.51,0,0,1,.08.6c0,.19,0,.36,0,.51v4.27h-.51V86.25a5.57,5.57,0,0,0,0-.64,1.87,1.87,0,0,0-.23-.75,1.66,1.66,0,0,0-.6-.61,2,2,0,0,0-1.09-.26,2.53,2.53,0,0,0-1,.22,2.27,2.27,0,0,0-.78.6,2.65,2.65,0,0,0-.49.91,3.92,3.92,0,0,0-.17,1.16v3.74h-.51Z"/><path class="cls-7" d="M154.22,89.25h0a2,2,0,0,1-.34.58,2.41,2.41,0,0,1-.56.49,2.57,2.57,0,0,1-.75.34,3.28,3.28,0,0,1-.91.12,2.68,2.68,0,0,1-1.71-.48,1.74,1.74,0,0,1-.6-1.47,1.86,1.86,0,0,1,.24-1,1.84,1.84,0,0,1,.61-.6,2.8,2.8,0,0,1,.82-.32c.3-.06.59-.1.87-.13l.79-.07a4.13,4.13,0,0,0,.87-.13.91.91,0,0,0,.47-.24.62.62,0,0,0,.2-.39,3.59,3.59,0,0,0,0-.61,1.27,1.27,0,0,0-.1-.52,1.16,1.16,0,0,0-.34-.43,1.56,1.56,0,0,0-.59-.3,3.22,3.22,0,0,0-.89-.11,2.37,2.37,0,0,0-1.5.46,1.84,1.84,0,0,0-.62,1.39h-.51a2.25,2.25,0,0,1,.73-1.72,2.92,2.92,0,0,1,1.93-.57,2.75,2.75,0,0,1,1.82.49,1.62,1.62,0,0,1,.57,1.28v4c0,.1,0,.2,0,.3a.76.76,0,0,0,0,.27.36.36,0,0,0,.13.19.41.41,0,0,0,.27.08l.38,0v.43a2,2,0,0,1-.42.05,1.28,1.28,0,0,1-.49-.08.69.69,0,0,1-.28-.22,1,1,0,0,1-.13-.31,2.5,2.5,0,0,1,0-.4Zm0-2.55a.92.92,0,0,1-.57.3,6.36,6.36,0,0,1-.85.13l-.86.08a7,7,0,0,0-.76.11,2.07,2.07,0,0,0-.67.25,1.35,1.35,0,0,0-.5.48,1.5,1.5,0,0,0-.18.78,1.36,1.36,0,0,0,.48,1.14,2.19,2.19,0,0,0,1.33.37A2.67,2.67,0,0,0,153,90a2.34,2.34,0,0,0,.77-.72,2.3,2.3,0,0,0,.35-.8,3.13,3.13,0,0,0,.07-.51ZM151,82.52V81.13h.59v1.39Zm2.13,0V81.13h.59v1.39Z"/><path class="cls-7" d="M156.87,85.24h0a1.77,1.77,0,0,1,.34-.63,2.33,2.33,0,0,1,.61-.51,3.13,3.13,0,0,1,.79-.33,3.39,3.39,0,0,1,.91-.1v.51a2.52,2.52,0,0,0-.92.08,2.24,2.24,0,0,0-1,.59,4.92,4.92,0,0,0-.33.39,2.86,2.86,0,0,0-.24.42,2.36,2.36,0,0,0-.14.51,4.06,4.06,0,0,0-.07.67v3.78h-.51V83.71h.51Z"/><path class="cls-7" d="M165,90.18v.44h-5.49v-.48l4.64-6h-4.27v-.44h4.9v.49l-4.65,6Z"/><path class="cls-7" d="M168.36,84.15h-1.5V89a1.94,1.94,0,0,0,.09.66.77.77,0,0,0,.29.37,1,1,0,0,0,.47.15,4.23,4.23,0,0,0,.64,0v.44a4.79,4.79,0,0,1-.76,0,1.46,1.46,0,0,1-.65-.2,1.16,1.16,0,0,1-.45-.5,1.93,1.93,0,0,1-.15-.93V84.15h-1.27v-.44h1.27V81.56h.52v2.15h1.5Z"/><path class="cls-7" d="M169.3,87.23v.08a4,4,0,0,0,.16,1.16,3,3,0,0,0,.48,1,2.34,2.34,0,0,0,.8.66,2.45,2.45,0,0,0,1.11.24,2.32,2.32,0,0,0,1.64-.55,2.83,2.83,0,0,0,.84-1.51h.51a3.06,3.06,0,0,1-1,1.86,3,3,0,0,1-2,.64,3.14,3.14,0,0,1-1.34-.27,2.83,2.83,0,0,1-.95-.76,2.94,2.94,0,0,1-.57-1.13,4.84,4.84,0,0,1-.19-1.4,4.92,4.92,0,0,1,.2-1.39,3.47,3.47,0,0,1,.58-1.17,2.83,2.83,0,0,1,1-.81,3,3,0,0,1,1.38-.3,3,3,0,0,1,1.29.27,2.67,2.67,0,0,1,.93.73,3.28,3.28,0,0,1,.57,1.08,4.23,4.23,0,0,1,.2,1.31s0,.09,0,.15a.82.82,0,0,0,0,.14Zm5.08-.44a4.13,4.13,0,0,0-.19-1.07,2.41,2.41,0,0,0-1.24-1.5,2.29,2.29,0,0,0-1-.23,2.38,2.38,0,0,0-1.89.86,2.67,2.67,0,0,0-.5.89,3.77,3.77,0,0,0-.21,1.05Z"/><path class="cls-7" d="M179.92,81h.85L184.52,90h0L188.25,81h.85v9.6h-.59V81.75h0l-3.66,8.87h-.59l-3.69-8.87h0v8.87h-.59Z"/><path class="cls-7" d="M190.38,87.17a4.56,4.56,0,0,1,.2-1.4,3.67,3.67,0,0,1,.61-1.14,2.85,2.85,0,0,1,1-.79,3.09,3.09,0,0,1,1.36-.29,3.12,3.12,0,0,1,1.36.29,2.82,2.82,0,0,1,1,.79,3.47,3.47,0,0,1,.61,1.14,4.74,4.74,0,0,1,0,2.79,3.33,3.33,0,0,1-.61,1.15,2.91,2.91,0,0,1-1,.78,3.12,3.12,0,0,1-1.36.29,3.09,3.09,0,0,1-1.36-.29,3,3,0,0,1-1-.78,3.51,3.51,0,0,1-.61-1.15A4.54,4.54,0,0,1,190.38,87.17Zm.51,0a3.87,3.87,0,0,0,.17,1.18,3.37,3.37,0,0,0,.51,1,2.58,2.58,0,0,0,.83.71,2.53,2.53,0,0,0,1.15.26,2.36,2.36,0,0,0,2-1,3,3,0,0,0,.51-1A4,4,0,0,0,196,86a3.06,3.06,0,0,0-.51-1,2.45,2.45,0,0,0-.83-.7,2.34,2.34,0,0,0-1.14-.27,2.41,2.41,0,0,0-1.15.27,2.55,2.55,0,0,0-.83.7,3.48,3.48,0,0,0-.51,1A3.89,3.89,0,0,0,190.89,87.17Z"/><path class="cls-7" d="M197.92,83.71h.51v1.48h0a2.13,2.13,0,0,1,.39-.69,2.36,2.36,0,0,1,.57-.52,2.59,2.59,0,0,1,.72-.32,3.09,3.09,0,0,1,.8-.11,3,3,0,0,1,1,.15,2,2,0,0,1,.7.39,1.79,1.79,0,0,1,.42.54,2.49,2.49,0,0,1,.22.61,3.3,3.3,0,0,1,.08.6c0,.19,0,.36,0,.51v4.27h-.51V86.25a5.93,5.93,0,0,0,0-.64,1.87,1.87,0,0,0-.23-.75,1.71,1.71,0,0,0-.59-.61,2,2,0,0,0-1.1-.26,2.53,2.53,0,0,0-1,.22,2.27,2.27,0,0,0-.78.6,2.83,2.83,0,0,0-.49.91,3.92,3.92,0,0,0-.16,1.16v3.74h-.51Z"/><path class="cls-7" d="M205,82.41V81h.51v1.39Zm0,8.21V83.71h.51v6.91Z"/><path class="cls-7" d="M207.17,81h.52v6.36L212,83.71h.74l-3,2.58,3.24,4.33h-.7l-2.94-3.94L207.69,88v2.61h-.52Z"/><path class="cls-7" d="M218,89.25h0a2,2,0,0,1-.35.58,2.22,2.22,0,0,1-.56.49,2.57,2.57,0,0,1-.75.34,3.23,3.23,0,0,1-.91.12,2.72,2.72,0,0,1-1.71-.48,1.74,1.74,0,0,1-.6-1.47,1.86,1.86,0,0,1,.24-1,1.94,1.94,0,0,1,.61-.6,2.8,2.8,0,0,1,.82-.32c.3-.06.59-.1.87-.13l.79-.07a4,4,0,0,0,.87-.13,1,1,0,0,0,.48-.24.73.73,0,0,0,.2-.39,3.59,3.59,0,0,0,0-.61,1.27,1.27,0,0,0-.11-.52,1.07,1.07,0,0,0-.34-.43,1.49,1.49,0,0,0-.59-.3,3.15,3.15,0,0,0-.88-.11,2.35,2.35,0,0,0-1.5.46,1.85,1.85,0,0,0-.63,1.39h-.51a2.28,2.28,0,0,1,.73-1.72,2.94,2.94,0,0,1,1.93-.57,2.73,2.73,0,0,1,1.82.49,1.6,1.6,0,0,1,.58,1.28v4.32a1.08,1.08,0,0,0,.05.27.43.43,0,0,0,.13.19.46.46,0,0,0,.27.08l.38,0v.43a1.93,1.93,0,0,1-.42.05,1.32,1.32,0,0,1-.49-.08.6.6,0,0,1-.27-.22A.66.66,0,0,1,218,90a2.5,2.5,0,0,1,0-.4Zm0-2.55a1,1,0,0,1-.58.3,6.36,6.36,0,0,1-.85.13l-.86.08a6.46,6.46,0,0,0-.75.11,2.12,2.12,0,0,0-.68.25,1.33,1.33,0,0,0-.49.48,1.41,1.41,0,0,0-.19.78A1.36,1.36,0,0,0,214,90a2.21,2.21,0,0,0,1.33.37,2.62,2.62,0,0,0,1.39-.32,2.48,2.48,0,0,0,.78-.72,2.27,2.27,0,0,0,.34-.8A3.61,3.61,0,0,0,218,88Z"/><path class="cls-7" d="M223.92,81h3.85a3.94,3.94,0,0,1,1.43.22,2.48,2.48,0,0,1,.93.56,2.27,2.27,0,0,1,.51.8,2.89,2.89,0,0,1,.15.91,2,2,0,0,1-.13.74,1.91,1.91,0,0,1-.39.62,2.05,2.05,0,0,1-.59.45,2.11,2.11,0,0,1-.76.23l0,0a1.58,1.58,0,0,1,.44.08,2.15,2.15,0,0,1,.73.36,2.39,2.39,0,0,1,.69.72,2.17,2.17,0,0,1,.3,1.19,2.64,2.64,0,0,1-.24,1.16,2.41,2.41,0,0,1-.68.84,2.86,2.86,0,0,1-1.05.51,4.94,4.94,0,0,1-1.37.18h-3.85Zm3.85,4.36a2.61,2.61,0,0,0,1.82-.55,2,2,0,0,0,.41-2.31,1.77,1.77,0,0,0-.54-.58,2.31,2.31,0,0,0-.77-.31,4.55,4.55,0,0,0-.92-.1h-3.26v3.85Zm0,4.73a3.28,3.28,0,0,0,2-.55,1.88,1.88,0,0,0,.73-1.63,1.75,1.75,0,0,0-.91-1.64,2.56,2.56,0,0,0-.88-.31,5.36,5.36,0,0,0-1-.09h-3.26v4.22Z"/><path class="cls-7" d="M232,87.17a4.56,4.56,0,0,1,.21-1.4,3.47,3.47,0,0,1,.61-1.14,2.77,2.77,0,0,1,1-.79,3.31,3.31,0,0,1,2.71,0,2.77,2.77,0,0,1,1,.79,3.47,3.47,0,0,1,.61,1.14,4.74,4.74,0,0,1,0,2.79,3.33,3.33,0,0,1-.61,1.15,2.85,2.85,0,0,1-1,.78,3.31,3.31,0,0,1-2.71,0,2.85,2.85,0,0,1-1-.78,3.33,3.33,0,0,1-.61-1.15A4.54,4.54,0,0,1,232,87.17Zm.51,0a3.88,3.88,0,0,0,.18,1.18,3,3,0,0,0,.51,1,2.46,2.46,0,0,0,4,0,3.37,3.37,0,0,0,.51-1,4,4,0,0,0,0-2.37,3.48,3.48,0,0,0-.51-1,2.45,2.45,0,0,0-.83-.7,2.38,2.38,0,0,0-1.15-.27,2.34,2.34,0,0,0-1.14.27,2.45,2.45,0,0,0-.83.7,3.06,3.06,0,0,0-.51,1A3.9,3.9,0,0,0,232.48,87.17Z"/><path class="cls-7" d="M239.75,88.32a2.12,2.12,0,0,0,.71,1.49,2.13,2.13,0,0,0,.71.39,2.69,2.69,0,0,0,.87.14,4.76,4.76,0,0,0,.72-.06,2.79,2.79,0,0,0,.71-.22,1.42,1.42,0,0,0,.54-.46,1.13,1.13,0,0,0,.22-.73,1.09,1.09,0,0,0-.35-.87,2.45,2.45,0,0,0-.88-.46,8.71,8.71,0,0,0-1.14-.26,6.33,6.33,0,0,1-1.14-.3,2.4,2.4,0,0,1-.88-.57,1.82,1.82,0,0,1-.13-1.94,1.69,1.69,0,0,1,.59-.54,2.54,2.54,0,0,1,.8-.29,4.41,4.41,0,0,1,.89-.09,4,4,0,0,1,1,.12,2.15,2.15,0,0,1,.82.39,1.83,1.83,0,0,1,.53.69,2.31,2.31,0,0,1,.2,1H244a1.78,1.78,0,0,0-.16-.8,1.31,1.31,0,0,0-.43-.55,1.87,1.87,0,0,0-.65-.31,3.44,3.44,0,0,0-.8-.1,4.27,4.27,0,0,0-.71.07,2.11,2.11,0,0,0-.64.23,1.43,1.43,0,0,0-.46.42,1,1,0,0,0-.18.61,1,1,0,0,0,.2.68,1.48,1.48,0,0,0,.53.41,3.57,3.57,0,0,0,.74.24l.82.19c.34.07.67.14,1,.22a3.12,3.12,0,0,1,.78.35,1.59,1.59,0,0,1,.51.58,1.77,1.77,0,0,1,.19.88,1.57,1.57,0,0,1-.25.93,1.91,1.91,0,0,1-.65.58,2.73,2.73,0,0,1-.87.31,5,5,0,0,1-.93.09,3.9,3.9,0,0,1-1.1-.15,2.66,2.66,0,0,1-.88-.47,2.3,2.3,0,0,1-.59-.78,2.67,2.67,0,0,1-.23-1.06Z"/><path class="cls-7" d="M246.22,88.32a2,2,0,0,0,1.41,1.88,2.74,2.74,0,0,0,.87.14,4.56,4.56,0,0,0,.72-.06,2.75,2.75,0,0,0,.72-.22,1.49,1.49,0,0,0,.54-.46,1.19,1.19,0,0,0,.21-.73,1.09,1.09,0,0,0-.34-.87,2.5,2.5,0,0,0-.89-.46,8.71,8.71,0,0,0-1.14-.26,6.33,6.33,0,0,1-1.14-.3,2.48,2.48,0,0,1-.88-.57,1.55,1.55,0,0,1-.35-1.09,1.52,1.52,0,0,1,.23-.85,1.66,1.66,0,0,1,.58-.54,2.63,2.63,0,0,1,.8-.29,4.48,4.48,0,0,1,.89-.09,4.11,4.11,0,0,1,1,.12,2.18,2.18,0,0,1,.81.39,1.85,1.85,0,0,1,.54.69,2.32,2.32,0,0,1,.19,1h-.51a1.94,1.94,0,0,0-.15-.8,1.39,1.39,0,0,0-.43-.55,2,2,0,0,0-.65-.31,3.45,3.45,0,0,0-.81-.1,4.38,4.38,0,0,0-.71.07,2.05,2.05,0,0,0-.63.23,1.47,1.47,0,0,0-.47.42,1,1,0,0,0-.18.61,1.1,1.1,0,0,0,.2.68,1.57,1.57,0,0,0,.53.41,3.78,3.78,0,0,0,.74.24l.83.19c.34.07.66.14,1,.22a3.12,3.12,0,0,1,.78.35A1.62,1.62,0,0,1,251,88a1.88,1.88,0,0,1,.19.88,1.57,1.57,0,0,1-.26.93,1.91,1.91,0,0,1-.65.58,2.67,2.67,0,0,1-.86.31,5.07,5.07,0,0,1-.94.09,3.78,3.78,0,0,1-1.09-.15,2.56,2.56,0,0,1-.88-.47,2.18,2.18,0,0,1-.59-.78,2.51,2.51,0,0,1-.23-1.06Z"/><path class="cls-7" d="M252.63,87.23v.08a4,4,0,0,0,.16,1.16,3,3,0,0,0,.48,1,2.41,2.41,0,0,0,.79.66,2.46,2.46,0,0,0,1.12.24,2.32,2.32,0,0,0,1.64-.55,2.83,2.83,0,0,0,.84-1.51h.51a3.06,3.06,0,0,1-1,1.86,3,3,0,0,1-2,.64,3.11,3.11,0,0,1-1.34-.27,2.73,2.73,0,0,1-1-.76,2.94,2.94,0,0,1-.57-1.13,4.84,4.84,0,0,1-.19-1.4,4.91,4.91,0,0,1,.19-1.39,3.49,3.49,0,0,1,.59-1.17,2.83,2.83,0,0,1,1-.81,3,3,0,0,1,1.38-.3,2.9,2.9,0,0,1,1.28.27,2.62,2.62,0,0,1,.94.73,3.28,3.28,0,0,1,.57,1.08,4.23,4.23,0,0,1,.19,1.31v.15a.82.82,0,0,0,0,.14Zm5.08-.44a4.13,4.13,0,0,0-.19-1.07,2.73,2.73,0,0,0-.48-.89,2.32,2.32,0,0,0-.77-.61,2.26,2.26,0,0,0-1-.23,2.39,2.39,0,0,0-1.09.24,2.42,2.42,0,0,0-.79.62,2.67,2.67,0,0,0-.5.89,4.18,4.18,0,0,0-.22,1.05Z"/><path class="cls-7" d="M259.42,83.71h.51v1.48h0a2.13,2.13,0,0,1,.39-.69,2.54,2.54,0,0,1,1.29-.84,3.09,3.09,0,0,1,.8-.11,3.15,3.15,0,0,1,1,.15,2.08,2.08,0,0,1,.69.39,1.79,1.79,0,0,1,.42.54,2.49,2.49,0,0,1,.22.61,2.61,2.61,0,0,1,.08.6c0,.19,0,.36,0,.51v4.27h-.51V86.25c0-.17,0-.38,0-.64a2.06,2.06,0,0,0-.24-.75,1.71,1.71,0,0,0-.59-.61,2,2,0,0,0-1.1-.26,2.45,2.45,0,0,0-1,.22,2.1,2.1,0,0,0-.78.6,2.49,2.49,0,0,0-.49.91,3.62,3.62,0,0,0-.17,1.16v3.74h-.51Z"/><path class="cls-7" d="M270,88.34a2.16,2.16,0,0,1,.24-1,2.9,2.9,0,0,1,.6-.79,4.44,4.44,0,0,1,.8-.63l.86-.56-.45-.55a5.67,5.67,0,0,1-.42-.58,3.68,3.68,0,0,1-.31-.63,2.09,2.09,0,0,1-.12-.72,1.4,1.4,0,0,1,.17-.68,1.89,1.89,0,0,1,.46-.52,2.51,2.51,0,0,1,1.39-.46,2.67,2.67,0,0,1,.75.11,1.92,1.92,0,0,1,.64.32,1.5,1.5,0,0,1,.45.52,1.36,1.36,0,0,1,.17.71,2,2,0,0,1-.18.88,2.47,2.47,0,0,1-.46.68,3.78,3.78,0,0,1-.64.55l-.71.51,2.29,2.81a4.12,4.12,0,0,0,.23-.78,3.75,3.75,0,0,0,.09-.82h.51a6.06,6.06,0,0,1-.15,1,7.66,7.66,0,0,1-.33,1l1.56,1.92h-.69l-1.17-1.42a3.25,3.25,0,0,1-1.14,1.16,3,3,0,0,1-1.59.42,4,4,0,0,1-1.12-.15,2.94,2.94,0,0,1-.9-.46,2.09,2.09,0,0,1-.6-.77A2.39,2.39,0,0,1,270,88.34Zm.51,0a1.69,1.69,0,0,0,.21.84,1.9,1.9,0,0,0,.53.63,2.5,2.5,0,0,0,.74.39,2.82,2.82,0,0,0,.86.14,2.21,2.21,0,0,0,1.06-.24,2.85,2.85,0,0,0,.74-.52,2.31,2.31,0,0,0,.45-.53,1.36,1.36,0,0,0,.15-.27l-2.48-3.08-.77.49a4.55,4.55,0,0,0-.73.56,2.94,2.94,0,0,0-.54.69A1.84,1.84,0,0,0,270.46,88.34Zm2.44-3.26c.19-.12.4-.26.6-.41a3.87,3.87,0,0,0,.57-.49,2.28,2.28,0,0,0,.43-.6,1.55,1.55,0,0,0,.17-.74.92.92,0,0,0-.13-.49,1.59,1.59,0,0,0-.34-.39,1.54,1.54,0,0,0-.48-.24,1.76,1.76,0,0,0-.55-.09,1.67,1.67,0,0,0-.55.09,1.54,1.54,0,0,0-.48.24,1.44,1.44,0,0,0-.35.39,1,1,0,0,0-.13.49,1.75,1.75,0,0,0,.13.65,3.74,3.74,0,0,0,.33.58,5.12,5.12,0,0,0,.4.52C272.66,84.76,272.79,84.92,272.9,85.08Z"/><path class="cls-7" d="M281.93,81h6v.51h-5.43v3.85h4.89v.51h-4.89v4.73h-.59Z"/><path class="cls-7" d="M288.93,85.24h0a1.94,1.94,0,0,1,.34-.63,2.33,2.33,0,0,1,.61-.51,3.29,3.29,0,0,1,.79-.33,3.43,3.43,0,0,1,.91-.1v.51a2.52,2.52,0,0,0-.92.08,2.24,2.24,0,0,0-1,.59l-.33.39a2.13,2.13,0,0,0-.23.42,2.35,2.35,0,0,0-.15.51,4.06,4.06,0,0,0-.07.67v3.78h-.51V83.71h.51Z"/><path class="cls-7" d="M296.47,89.25h0a1.84,1.84,0,0,1-.35.58,2.17,2.17,0,0,1-.55.49,2.57,2.57,0,0,1-.75.34,3.28,3.28,0,0,1-.91.12,2.68,2.68,0,0,1-1.71-.48,1.74,1.74,0,0,1-.6-1.47,1.86,1.86,0,0,1,.24-1,1.84,1.84,0,0,1,.61-.6,2.8,2.8,0,0,1,.82-.32c.3-.06.59-.1.87-.13l.79-.07a4,4,0,0,0,.87-.13.91.91,0,0,0,.47-.24.62.62,0,0,0,.2-.39,3.49,3.49,0,0,0,.05-.61,1.18,1.18,0,0,0-.45-.95,1.56,1.56,0,0,0-.59-.3,3.22,3.22,0,0,0-.89-.11,2.37,2.37,0,0,0-1.5.46,1.84,1.84,0,0,0-.62,1.39h-.51a2.25,2.25,0,0,1,.73-1.72,2.92,2.92,0,0,1,1.93-.57,2.75,2.75,0,0,1,1.82.49,1.62,1.62,0,0,1,.57,1.28v4c0,.1,0,.2,0,.3a.76.76,0,0,0,.05.27.36.36,0,0,0,.13.19.41.41,0,0,0,.27.08l.38,0v.43a2,2,0,0,1-.42.05,1.28,1.28,0,0,1-.49-.08.69.69,0,0,1-.28-.22.77.77,0,0,1-.12-.31,1.7,1.7,0,0,1,0-.4Zm0-2.55a.92.92,0,0,1-.57.3,6.62,6.62,0,0,1-.85.13l-.86.08a6.63,6.63,0,0,0-.76.11,2.07,2.07,0,0,0-.67.25,1.35,1.35,0,0,0-.5.48,1.5,1.5,0,0,0-.18.78,1.36,1.36,0,0,0,.48,1.14,2.19,2.19,0,0,0,1.33.37,2.65,2.65,0,0,0,1.39-.32,2.3,2.3,0,0,0,1.12-1.52,3.13,3.13,0,0,0,.07-.51Z"/><path class="cls-7" d="M298.61,83.71h.51v1.48h0a2.11,2.11,0,0,1,.38-.69,2.52,2.52,0,0,1,1.3-.84,3,3,0,0,1,.79-.11,3.11,3.11,0,0,1,1,.15,2.08,2.08,0,0,1,.69.39,1.79,1.79,0,0,1,.42.54,2.14,2.14,0,0,1,.22.61,3.36,3.36,0,0,1,.09.6c0,.19,0,.36,0,.51v4.27h-.51V86.25c0-.17,0-.38,0-.64a2.06,2.06,0,0,0-.24-.75,1.71,1.71,0,0,0-.59-.61,2,2,0,0,0-1.09-.26,2.46,2.46,0,0,0-1.05.22,2.1,2.1,0,0,0-.78.6,2.49,2.49,0,0,0-.49.91,3.92,3.92,0,0,0-.17,1.16v3.74h-.51Z"/><path class="cls-7" d="M305.61,81h.51v6.36l4.26-3.67h.74l-3,2.58,3.24,4.33h-.7l-2.95-3.94L306.12,88v2.61h-.51Z"/><path class="cls-7" d="M315.64,81h6v.51h-5.43v3.85h4.89v.51h-4.89v4.73h-.59Z"/><path class="cls-7" d="M322.26,87.23v.08a4.39,4.39,0,0,0,.16,1.16,3,3,0,0,0,.48,1,2.34,2.34,0,0,0,.8.66,2.45,2.45,0,0,0,1.11.24,2.37,2.37,0,0,0,1.65-.55,2.82,2.82,0,0,0,.83-1.51h.51a3.06,3.06,0,0,1-1,1.86,3,3,0,0,1-2,.64,3.07,3.07,0,0,1-1.33-.27,2.77,2.77,0,0,1-1-.76,3.25,3.25,0,0,1-.57-1.13,4.84,4.84,0,0,1-.19-1.4,4.92,4.92,0,0,1,.2-1.39,3.47,3.47,0,0,1,.58-1.17,2.86,2.86,0,0,1,1-.81,3.25,3.25,0,0,1,2.66,0,2.67,2.67,0,0,1,.93.73,3.28,3.28,0,0,1,.57,1.08,4.23,4.23,0,0,1,.2,1.31.86.86,0,0,1,0,.15v.14Zm5.08-.44a4.13,4.13,0,0,0-.19-1.07,2.41,2.41,0,0,0-1.24-1.5,2.29,2.29,0,0,0-1-.23,2.34,2.34,0,0,0-1.09.24,2.46,2.46,0,0,0-.8.62,2.67,2.67,0,0,0-.5.89,4.16,4.16,0,0,0-.21,1.05Z"/><path class="cls-7" d="M334.52,90.62H334V89.14h0a2.11,2.11,0,0,1-.38.69,2.38,2.38,0,0,1-.58.52,2.59,2.59,0,0,1-.72.32,3,3,0,0,1-.79.11,3.11,3.11,0,0,1-1-.15,1.92,1.92,0,0,1-.69-.39,1.79,1.79,0,0,1-.42-.54,2.53,2.53,0,0,1-.23-.61,4.51,4.51,0,0,1-.08-.6c0-.19,0-.36,0-.5V83.71h.51v4.37c0,.18,0,.4,0,.65a2,2,0,0,0,.24.74,1.68,1.68,0,0,0,.58.61,2,2,0,0,0,1.1.26,2.31,2.31,0,0,0,1-.22,2.13,2.13,0,0,0,.79-.6,2.49,2.49,0,0,0,.49-.91,3.87,3.87,0,0,0,.17-1.16V83.71h.51Z"/><path class="cls-7" d="M336.21,87.23v.08a4,4,0,0,0,.17,1.16,2.83,2.83,0,0,0,.47,1,2.34,2.34,0,0,0,.8.66,2.45,2.45,0,0,0,1.11.24,2.32,2.32,0,0,0,1.64-.55,2.76,2.76,0,0,0,.84-1.51h.51a3.06,3.06,0,0,1-1,1.86,3,3,0,0,1-2,.64,3.07,3.07,0,0,1-1.33-.27,2.87,2.87,0,0,1-1-.76,3.25,3.25,0,0,1-.57-1.13,5.21,5.21,0,0,1-.19-1.4,4.92,4.92,0,0,1,.2-1.39,3.47,3.47,0,0,1,.58-1.17,2.86,2.86,0,0,1,1-.81,3.25,3.25,0,0,1,2.66,0,2.67,2.67,0,0,1,.93.73,3.28,3.28,0,0,1,.57,1.08,4.23,4.23,0,0,1,.2,1.31.86.86,0,0,1,0,.15c0,.06,0,.11,0,.14Zm5.08-.44a4.13,4.13,0,0,0-.18-1.07,2.73,2.73,0,0,0-.48-.89,2.42,2.42,0,0,0-.77-.61,2.29,2.29,0,0,0-1-.23,2.37,2.37,0,0,0-1.09.24,2.46,2.46,0,0,0-.8.62,2.86,2.86,0,0,0-.5.89,4.16,4.16,0,0,0-.21,1.05Z"/><path class="cls-7" d="M343.51,85.24h0a1.77,1.77,0,0,1,.34-.63,2.33,2.33,0,0,1,.61-.51,3.29,3.29,0,0,1,.79-.33,3.43,3.43,0,0,1,.91-.1v.51a2.52,2.52,0,0,0-.92.08,2.24,2.24,0,0,0-1,.59l-.33.39a2.13,2.13,0,0,0-.23.42,1.9,1.9,0,0,0-.15.51,4.06,4.06,0,0,0-.07.67v3.78H343V83.71h.51Z"/><path class="cls-7" d="M346.86,81h.5v4.16h0a2.19,2.19,0,0,1,.42-.71,2.77,2.77,0,0,1,.62-.51,2.9,2.9,0,0,1,.75-.31,3.33,3.33,0,0,1,.84-.1,3.07,3.07,0,0,1,1.33.27,2.59,2.59,0,0,1,.93.74,3.13,3.13,0,0,1,.56,1.09A4.89,4.89,0,0,1,353,87a5,5,0,0,1-.33,2,3.3,3.3,0,0,1-.81,1.14,2.46,2.46,0,0,1-1,.52,3.59,3.59,0,0,1-.88.13,2.91,2.91,0,0,1-1.17-.21,3.17,3.17,0,0,1-.79-.51,2.62,2.62,0,0,1-.47-.57,3.44,3.44,0,0,1-.2-.42h0v1.55h-.5ZM350,90.34a2.11,2.11,0,0,0,1.16-.3,2.46,2.46,0,0,0,.77-.77,3.44,3.44,0,0,0,.43-1.08A5.36,5.36,0,0,0,352.5,87a4.13,4.13,0,0,0-.15-1.11,2.87,2.87,0,0,0-.47-1,2.46,2.46,0,0,0-.79-.68A2.18,2.18,0,0,0,350,84a2.81,2.81,0,0,0-1.17.23,2.17,2.17,0,0,0-.82.63,2.72,2.72,0,0,0-.49,1,4.13,4.13,0,0,0-.16,1.19,5.07,5.07,0,0,0,.15,1.24,3.33,3.33,0,0,0,.46,1.07,2.37,2.37,0,0,0,.82.75A2.49,2.49,0,0,0,350,90.34Z"/><path class="cls-7" d="M354.4,87.23v.08a4,4,0,0,0,.16,1.16,3,3,0,0,0,.48,1,2.31,2.31,0,0,0,.79.66,2.46,2.46,0,0,0,1.12.24,2.34,2.34,0,0,0,1.64-.55,2.82,2.82,0,0,0,.83-1.51h.52a3.17,3.17,0,0,1-1,1.86,3,3,0,0,1-2,.64,3.11,3.11,0,0,1-1.34-.27,2.73,2.73,0,0,1-1-.76,2.94,2.94,0,0,1-.57-1.13,4.84,4.84,0,0,1-.19-1.4,4.91,4.91,0,0,1,.19-1.39,3.49,3.49,0,0,1,.59-1.17,2.83,2.83,0,0,1,1-.81,3,3,0,0,1,1.38-.3,2.9,2.9,0,0,1,1.28.27,2.71,2.71,0,0,1,.94.73,3.28,3.28,0,0,1,.57,1.08,4.23,4.23,0,0,1,.19,1.31v.15a.82.82,0,0,0,0,.14Zm5.08-.44a4.13,4.13,0,0,0-.19-1.07,2.73,2.73,0,0,0-.48-.89,2.42,2.42,0,0,0-.77-.61,2.26,2.26,0,0,0-1-.23,2.39,2.39,0,0,0-1.09.24,2.42,2.42,0,0,0-.79.62,2.51,2.51,0,0,0-.5.89,4.18,4.18,0,0,0-.22,1.05Z"/><path class="cls-7" d="M361.7,85.24h0a1.62,1.62,0,0,1,.34-.63,2.29,2.29,0,0,1,.6-.51,3.17,3.17,0,0,1,1.7-.43v.51a2.55,2.55,0,0,0-.92.08,2.26,2.26,0,0,0-1,.59,4.92,4.92,0,0,0-.33.39,1.76,1.76,0,0,0-.24.42,3.09,3.09,0,0,0-.15.51,5.74,5.74,0,0,0-.06.67v3.78h-.52V83.71h.52Z"/><path class="cls-7" d="M370.46,83.71v6.55a4.64,4.64,0,0,1-.14,1.12,2.38,2.38,0,0,1-.46,1,2.31,2.31,0,0,1-.9.67,3.84,3.84,0,0,1-1.46.24,4.37,4.37,0,0,1-1-.11,2.67,2.67,0,0,1-.84-.36,1.85,1.85,0,0,1-.58-.66,2.32,2.32,0,0,1-.25-1h.51a1.67,1.67,0,0,0,.23.78,1.56,1.56,0,0,0,.49.53,2.12,2.12,0,0,0,.68.31,3.44,3.44,0,0,0,.8.09,3,3,0,0,0,1.19-.21,2.12,2.12,0,0,0,.76-.56,2.07,2.07,0,0,0,.4-.78,3.79,3.79,0,0,0,.11-.88V88.79h0a2.78,2.78,0,0,1-1,1.17,2.72,2.72,0,0,1-1.51.4,3,3,0,0,1-1.32-.26,2.54,2.54,0,0,1-.93-.72,3.2,3.2,0,0,1-.55-1.09,4.77,4.77,0,0,1-.18-1.34,4.26,4.26,0,0,1,.2-1.3,3.23,3.23,0,0,1,.57-1.09,2.79,2.79,0,0,1,2.22-1A2.87,2.87,0,0,1,369,84a2.24,2.24,0,0,1,1,1.18h0V83.71Zm-3,.28a2.24,2.24,0,0,0-1.1.26,2.36,2.36,0,0,0-.77.67,3.08,3.08,0,0,0-.45,1A3.58,3.58,0,0,0,365,87a4,4,0,0,0,.16,1.15,2.73,2.73,0,0,0,.47,1,2.31,2.31,0,0,0,.78.64,2.62,2.62,0,0,0,2.17,0,2.26,2.26,0,0,0,.78-.66,2.82,2.82,0,0,0,.47-1,4,4,0,0,0,0-2.23,2.73,2.73,0,0,0-.47-1,2.23,2.23,0,0,0-.78-.65A2.29,2.29,0,0,0,367.44,84Z"/><path class="cls-8" d="M411.57,20A2.57,2.57,0,0,1,413.28,18a1.68,1.68,0,0,1,1.73.37"/><path class="cls-8" d="M427.72,21.66a2.69,2.69,0,0,0-1.6-2.23,1.65,1.65,0,0,0-1.74.25"/><path class="cls-1" d="M466.2,30.36c0,1,.57,1.84,1.27,1.84s1.28-.83,1.28-1.84-.57-1.85-1.28-1.85S466.2,29.34,466.2,30.36Z"/><path class="cls-1" d="M456.74,29.19c0,1,.58,1.84,1.28,1.84s1.27-.82,1.27-1.84-.57-1.84-1.27-1.84S456.74,28.17,456.74,29.19Z"/><path class="cls-6" d="M457,29.78a1,1,0,1,0,1-1A1,1,0,0,0,457,29.78Z"/><path class="cls-6" d="M466.45,30.88a1,1,0,1,0,1-1A1,1,0,0,0,466.45,30.88Z"/><path class="cls-8" d="M470.45,27.42a2.33,2.33,0,0,0-1.6-1.83,1.89,1.89,0,0,0-1.64.16"/><path class="cls-8" d="M455.38,26.2a2.33,2.33,0,0,1,1.76-1.68,1.86,1.86,0,0,1,1.62.32"/></svg>